<?xml version="1.0" encoding="UTF-8" standalone="no"?>
<!-- Created with Inkscape (http://www.inkscape.org/) -->

<svg
   width="100"
   height="800"
   viewBox="0 0 26.458333 211.66666"
   version="1.1"
   id="svg5"
   inkscape:version="1.2.2 (732a01da63, 2022-12-09)"
   sodipodi:docname="social-1.svg"
   xml:space="preserve"
   xmlns:inkscape="http://www.inkscape.org/namespaces/inkscape"
   xmlns:sodipodi="http://sodipodi.sourceforge.net/DTD/sodipodi-0.dtd"
   xmlns="http://www.w3.org/2000/svg"
   xmlns:svg="http://www.w3.org/2000/svg"><style
     id="style2878">
#image2874 { 
    image-rendering:pixelated;
}
</style><sodipodi:namedview
     id="namedview7"
     pagecolor="#ffffff"
     bordercolor="#666666"
     borderopacity="1.0"
     inkscape:pageshadow="2"
     inkscape:pageopacity="0.0"
     inkscape:pagecheckerboard="0"
     inkscape:document-units="px"
     showgrid="true"
     units="px"
     width="100px"
     inkscape:snap-bbox="true"
     inkscape:snap-bbox-midpoints="true"
     inkscape:snap-others="true"
     inkscape:object-nodes="false"
     inkscape:zoom="0.7144641"
     inkscape:cx="-351.31226"
     inkscape:cy="463.98412"
     inkscape:window-width="1920"
     inkscape:window-height="991"
     inkscape:window-x="-9"
     inkscape:window-y="-9"
     inkscape:window-maximized="1"
     inkscape:current-layer="layer1"
     inkscape:showpageshadow="2"
     inkscape:deskcolor="#d1d1d1"><inkscape:grid
       type="xygrid"
       id="grid1002"
       spacingx="13.229167"
       spacingy="13.229167" /></sodipodi:namedview><defs
     id="defs2" /><g
     inkscape:label="Layer 1"
     id="layer1"
     style="fill:#ffffff;fill-opacity:1"
     inkscape:groupmode="layer"><path
       style="fill:#ffffff;fill-opacity:1;stroke:none;stroke-width:0.328883px;stroke-linecap:butt;stroke-linejoin:miter;stroke-opacity:1"
       d="m 3.2849653,4.7094722 c 0,-0.786835 0.6538312,-1.4245069 1.4605546,-1.4245069 H 21.712814 c 0.806724,0 1.460555,0.6376719 1.460555,1.4245069 V 21.748862 c 0,0.786835 -0.653831,1.424507 -1.460555,1.424507 H 4.7455199 c -0.8067234,0 -1.4605546,-0.637672 -1.4605546,-1.424507 z M 9.4292388,19.934045 V 10.953188 H 6.4447354 v 8.980857 z M 7.9376088,9.7263218 c 1.0404121,0 1.688028,-0.6886357 1.688028,-1.5512952 C 9.6069914,7.2937217 8.9792639,6.6237311 7.9574972,6.6237311 c -1.0217668,0 -1.6892713,0.6712336 -1.6892713,1.5512955 0,0.8626595 0.6476161,1.5512952 1.6494945,1.5512952 z M 14.038376,19.934045 v -5.015607 c 0,-0.268493 0.01989,-0.536987 0.09944,-0.728413 0.215044,-0.535743 0.706039,-1.091376 1.531408,-1.091376 1.080188,0 1.511518,0.822883 1.511518,2.031104 v 4.804292 h 2.984504 v -5.151096 c 0,-2.759517 -1.471742,-4.042319 -3.435722,-4.042319 -1.583614,0 -2.293382,0.870118 -2.69115,1.48293 v 0.03107 h -0.01989 a 6.8863599,6.8863599 0 0 1 0.01989,-0.03107 v -1.270372 h -2.98326 c 0.03729,0.842771 0,8.980857 0,8.980857 z"
       id="path854" /><path
       style="fill:#ffffff;fill-opacity:1;stroke:none;stroke-width:0.338069px;stroke-linecap:butt;stroke-linejoin:miter;stroke-opacity:1"
       d="m 13.229167,29.465556 c -2.77398,0 -3.122804,0.01278 -4.2127191,0.06133 -1.0899149,0.05111 -1.8322837,0.222327 -2.4826549,0.47532 a 5.0049199,5.0049199 0 0 0 -1.810562,1.179357 5.0176973,5.0176973 0 0 0 -1.1793569,1.810562 c -0.2529932,0.649093 -0.4254885,1.39274 -0.4753205,2.478822 -0.048554,1.09247 -0.061332,1.440016 -0.061332,4.21783 0,2.775258 0.012778,3.122804 0.061332,4.212719 0.05111,1.088637 0.2223273,1.831006 0.4753205,2.481377 0.2619373,0.672093 0.6107612,1.241966 1.1793569,1.810562 0.5673179,0.568596 1.1371914,0.918697 1.8092842,1.179357 0.651649,0.252993 1.3927401,0.425488 2.4813772,0.47532 1.0911926,0.04856 1.4387386,0.06133 4.2152746,0.06133 2.776536,0 3.122804,-0.01278 4.213997,-0.06133 1.087359,-0.05111 1.832284,-0.222327 2.482655,-0.47532 a 5.0036421,5.0036421 0 0 0 1.809284,-1.179357 c 0.568596,-0.568596 0.91742,-1.138469 1.179357,-1.810562 0.251715,-0.650371 0.424211,-1.39274 0.47532,-2.481377 0.04856,-1.089915 0.06133,-1.437461 0.06133,-4.213997 0,-2.776536 -0.01278,-3.124082 -0.06133,-4.215275 -0.05111,-1.087359 -0.223605,-1.831006 -0.47532,-2.480099 a 5.0164195,5.0164195 0 0 0 -1.179357,-1.810562 4.9972534,4.9972534 0 0 0 -1.810562,-1.179357 c -0.651649,-0.252993 -1.395295,-0.425488 -2.482655,-0.47532 -1.091193,-0.04856 -1.437461,-0.06133 -4.215274,-0.06133 h 0.0038 z m -0.916142,1.842506 h 0.91742 c 2.729259,0 3.052528,0.0089 4.129666,0.05878 0.996639,0.04472 1.538402,0.212105 1.898726,0.351379 0.476598,0.185273 0.817755,0.4076 1.175524,0.765368 0.357768,0.357768 0.578817,0.697648 0.76409,1.175524 0.140552,0.359046 0.306658,0.900809 0.351379,1.897448 0.04983,1.077138 0.06005,1.400407 0.06005,4.128389 0,2.727981 -0.01022,3.052528 -0.06005,4.129665 -0.04472,0.99664 -0.212105,1.537125 -0.351379,1.897449 a 3.1560255,3.1560255 0 0 1 -0.765368,1.174246 c -0.357768,0.357768 -0.697648,0.578817 -1.175524,0.76409 -0.357768,0.140552 -0.899531,0.306659 -1.897448,0.352657 -1.077138,0.04856 -1.400407,0.06005 -4.129666,0.06005 -2.72926,0 -3.053806,-0.0115 -4.1309438,-0.06005 -0.9966396,-0.046 -1.537125,-0.212105 -1.8974486,-0.352657 A 3.1662475,3.1662475 0 0 1 6.026529,46.886306 3.168803,3.168803 0 0 1 5.2598831,45.710782 C 5.1206091,45.351736 4.9532247,44.809973 4.9085037,43.813334 4.8599495,42.736196 4.8497275,42.412927 4.8497275,39.68239 c 0,-2.729259 0.010222,-3.051251 0.058776,-4.128388 0.045999,-0.99664 0.2121054,-1.538403 0.3526571,-1.898726 0.1852728,-0.476599 0.4076001,-0.817756 0.7653682,-1.175524 0.357768,-0.357768 0.6976477,-0.578818 1.1755236,-0.76409 0.3603236,-0.140552 0.900809,-0.306659 1.8974486,-0.352658 0.942975,-0.04344 1.308409,-0.05622 3.213524,-0.0575 z m 6.373383,1.696842 a 1.2266335,1.2266335 0 1 0 0,2.453267 1.2266335,1.2266335 0 0 0 0,-2.453267 z m -5.455963,1.433628 a 5.2502465,5.2502465 0 1 0 0,10.499216 5.2502465,5.2502465 0 0 0 0,-10.499216 z m 0,1.841228 a 3.407741,3.407741 0 1 1 0,6.815482 3.407741,3.407741 0 0 1 0,-6.815482 z"
       id="path1232" /><path
       style="fill:#ffffff;fill-opacity:1;stroke:none;stroke-width:0.336788px;stroke-linecap:butt;stroke-linejoin:miter;stroke-opacity:1"
       d="m 13.229167,56.21383 c -5.6262312,0 -10.1832238,4.556993 -10.1832238,10.183224 0,4.506076 2.9149478,8.312056 6.9627788,9.661333 0.509162,0.0891 0.700097,-0.216393 0.700097,-0.483703 0,-0.241851 -0.01273,-1.04378 -0.01273,-1.896625 C 8.1375551,74.149033 7.4756455,73.054336 7.2719811,72.48153 7.1574198,72.188762 6.6609876,71.285001 6.2282006,71.04315 5.8717878,70.852214 5.3626266,70.38124 6.2154716,70.368511 c 0.8019289,-0.01273 1.3747352,0.738284 1.5656707,1.043781 0.9164901,1.540212 2.3803287,1.107425 2.9658637,0.840115 0.0891,-0.661909 0.356413,-1.107425 0.649181,-1.362006 -2.2657676,-0.25458 -4.6333671,-1.132883 -4.6333671,-5.027966 0,-1.107426 0.3945999,-2.023916 1.0437804,-2.736742 -0.1018322,-0.25458 -0.4582451,-1.298361 0.1018323,-2.698554 0,0 0.852845,-0.26731 2.8003864,1.04378 0.814658,-0.229122 1.680232,-0.343684 2.545806,-0.343684 0.865574,0 1.731148,0.114562 2.545806,0.343684 1.947542,-1.323819 2.800387,-1.04378 2.800387,-1.04378 0.560077,1.400193 0.203664,2.443974 0.101832,2.698554 0.64918,0.712826 1.04378,1.616587 1.04378,2.736742 0,3.907812 -2.380328,4.773386 -4.646096,5.027966 0.369142,0.318226 0.687368,0.929219 0.687368,1.883897 0,1.362006 -0.01273,2.456702 -0.01273,2.800386 0,0.26731 0.190935,0.585536 0.700097,0.483703 a 10.198499,10.198499 0 0 0 6.937321,-9.661333 c 0,-5.626231 -4.556993,-10.183224 -10.183224,-10.183224 z"
       id="path1420" /><path
       style="fill-opacity:1;stroke:none;stroke-width:0.401205px;stroke-linecap:butt;stroke-linejoin:miter;stroke-opacity:1;fill:#ffffff"
       d="m 19.924037,82.981074 h 3.257251 l -7.114453,8.152421 8.370101,11.093765 h -6.552995 l -5.13276,-6.729526 -5.873406,6.729526 H 3.6191961 L 11.228741,93.506749 3.1997619,82.981074 h 6.7202384 l 4.6389947,6.14949 5.366369,-6.14949 z m -1.141498,17.292366 h 1.805159 L 8.937781,84.83269 H 7.0025434 Z"
       id="path1835"
       sodipodi:nodetypes="ssccccccccccccccccss" /><path
       style="stroke:none;stroke-width:0.0320259px;stroke-linecap:butt;stroke-linejoin:miter;stroke-opacity:1;fill:#ffffff;fill-opacity:1"
       d="m 19.281319,108.97901 h -0.0049 -0.0012 -3.465462 l -0.370398,0.36798 -1.766018,3.37105 -0.515643,0.29776 H 7.1770156 v 5.03782 h 3.1955364 l 0.332869,0.33286 -3.5284054,6.73484 v 4.01136 0.0133 0 l 3.4739354,-9.4e-4 0.371602,-0.36918 1.769649,-3.37226 0.50475,-0.29171 h 5.984367 v -5.03538 h -3.20522 l -0.324395,-0.3244 3.529615,-6.73846"
       id="path2261" /><path
       style="stroke:none;stroke-width:0.131278px;stroke-linecap:butt;stroke-linejoin:miter;stroke-opacity:1;fill:#ffffff;fill-opacity:1"
       d="m 12.076897,136.40394 h 2.872377 v 4.64093 h 3.353017 v 3.40243 h -3.352074 v 4.70588 c 0,1.41061 0.717957,1.89844 1.861629,1.89844 h 1.62322 l 0.0039,3.58657 H 15.36311 c -2.76714,0 -4.829917,-1.41136 -4.829917,-4.78631 V 144.4471 H 8.0193679 v -2.9276 c 2.7666431,-0.71151 3.9245551,-3.07159 4.0575291,-5.11601 z"
       id="path2574"
       sodipodi:nodetypes="ccccccssccssccccc" /><g
       fill="#ffffff"
       id="g2717"
       transform="matrix(0.65483587,0,0,0.65483587,-1.1663261,208.75303)"
       style="fill:#ffffff;fill-opacity:1"><path
         d="m 32.64984,-65.828923 c -1.9994,-0.91445 -4.1228,-1.58092 -6.3392,-1.9529 -0.279,0.48048 -0.589,1.13144 -0.806,1.64292 -2.3574,-0.34099 -4.6978,-0.34099 -7.0227,0 -0.217,-0.51148 -0.5425,-1.16244 -0.806,-1.64292 -2.23185,0.37198 -4.35525,1.03845 -6.3407,1.9529 -4.0142994,5.9207 -5.0992504,11.7019 -4.5567764,17.4056 2.665866,1.9374 5.2387664,3.1154 7.7666964,3.8904 0.61997,-0.837 1.17795,-1.736 1.65843,-2.6814 -0.91446,-0.341 -1.78242,-0.7595 -2.61938,-1.2555 0.21699,-0.1549 0.43399,-0.3254 0.63548,-0.4959 5.05275,2.3094 10.52555,2.3094 15.51625,0 0.217,0.1705 0.4185,0.341 0.6355,0.4959 -0.837,0.496 -1.7049,0.9145 -2.6194,1.2555 0.4805,0.9454 1.0385,1.8444 1.6584,2.6814 2.5264,-0.775 5.1148,-1.953 7.7667,-3.8904 0.6664,-6.6026 -1.0555,-12.3373 -4.5273,-17.4056 z m -15.7488,13.8873 c -1.51894,0 -2.75888,-1.3794 -2.75888,-3.0688 0,-1.6894 1.20894,-3.0689 2.75888,-3.0689 1.5344,0 2.7898,1.3795 2.7588,3.0689 0,1.6894 -1.2244,3.0688 -2.7588,3.0688 z m 10.1846,0 c -1.519,0 -2.7605,-1.3794 -2.7605,-3.0688 0,-1.6894 1.2105,-3.0689 2.7605,-3.0689 1.5344,0 2.7898,1.3795 2.7588,3.0689 0,1.6894 -1.2089,3.0688 -2.7588,3.0688 z"
         id="path2699"
         style="fill:#ffffff;fill-opacity:1" /></g><g
       style="display:inherit;fill:#ffffff"
       id="g4974"
       transform="matrix(0.7242961,0,0,0.7242961,2.8004587,191.19454)"><g
         id="g4964"
         style="fill:#ffffff"><path
           d="m 14.4848,20 c 0,0 9.0847,0 11.3381,-0.6 1.2688,-0.34 2.223,-1.32 2.5579,-2.53 C 29,14.65 29,9.98 29,9.98 29,9.98 29,5.34 28.3808,3.14 28.0459,1.9 27.0917,0.94 25.8229,0.61 23.5695,0 14.4848,0 14.4848,0 14.4848,0 5.42037,0 3.17711,0.61 1.9286,0.94 0.954148,1.9 0.59888,3.14 0,5.34 0,9.98 0,9.98 c 0,0 0,4.67 0.59888,6.89 0.355268,1.21 1.32972,2.19 2.57823,2.53 C 5.42037,20 14.4848,20 14.4848,20 Z"
           fill="#ff0033"
           id="path4960"
           style="fill:#ffffff" /><path
           d="M 19,10 11.5,5.75 v 8.5 z"
           fill="#ffffff"
           id="path4962"
           style="fill:#ffffff" /></g></g></g></svg>
