<?xml version="1.0" encoding="UTF-8" standalone="no"?>
<!-- Created with Inkscape (http://www.inkscape.org/) -->

<svg
   width="200mm"
   height="35mm"
   viewBox="0 0 200 35"
   version="1.1"
   id="svg5"
   inkscape:version="1.2.2 (732a01da63, 2022-12-09)"
   sodipodi:docname="logo.svg"
   xmlns:inkscape="http://www.inkscape.org/namespaces/inkscape"
   xmlns:sodipodi="http://sodipodi.sourceforge.net/DTD/sodipodi-0.dtd"
   xmlns:xlink="http://www.w3.org/1999/xlink"
   xmlns="http://www.w3.org/2000/svg"
   xmlns:svg="http://www.w3.org/2000/svg">
  <sodipodi:namedview
     id="namedview7"
     pagecolor="#ffffff"
     bordercolor="#000000"
     borderopacity="0.25"
     inkscape:showpageshadow="2"
     inkscape:pageopacity="0.0"
     inkscape:pagecheckerboard="0"
     inkscape:deskcolor="#d1d1d1"
     inkscape:document-units="mm"
     showgrid="false"
     inkscape:zoom="1.0129245"
     inkscape:cx="324.30847"
     inkscape:cy="324.30847"
     inkscape:window-width="1920"
     inkscape:window-height="991"
     inkscape:window-x="-9"
     inkscape:window-y="-9"
     inkscape:window-maximized="1"
     inkscape:current-layer="text241" />
  <defs
     id="defs2">
    <linearGradient
       inkscape:collect="always"
       id="linearGradient2845">
      <stop
         style="stop-color:#ffcc00;stop-opacity:1;"
         offset="0"
         id="stop2841" />
      <stop
         style="stop-color:#ab8800;stop-opacity:1;"
         offset="1"
         id="stop2843" />
    </linearGradient>
    <rect
       x="9.773181"
       y="11.16935"
       width="781.85449"
       height="108.90116"
       id="rect243" />
    <linearGradient
       inkscape:collect="always"
       xlink:href="#linearGradient2845"
       id="linearGradient2847"
       x1="332.26999"
       y1="14.896138"
       x2="332.26999"
       y2="48.538307"
       gradientUnits="userSpaceOnUse" />
  </defs>
  <g
     inkscape:label="Layer 1"
     inkscape:groupmode="layer"
     id="layer1"
     transform="translate(-4.7303741,-4.6412152)">
    <g
       aria-label="Deepworld 2025 Edition"
       transform="matrix(0.83077843,0,0,0.83077843,-228.2358,-2.7721292)"
       id="text241"
       style="font-size:32px;font-family:Arial;-inkscape-font-specification:Arial;text-align:center;white-space:pre;shape-inside:url(#rect243);display:inline;opacity:1;fill:url(#linearGradient2847);stroke:#141414;stroke-width:0.556105">
      <path
         d="m 284.4881,40.503255 v -0.32 h 1.488 v -21.76 h -1.488 v -0.32 h 5.76 q 1.552,0 2.848,1.232 1.312,1.232 2.096,3.68 0.8,2.432 0.8,6.112 0,3.712 -0.8,6.24 -0.784,2.528 -2.096,3.84 -1.312,1.296 -2.848,1.296 z m 4.864,-0.32 h 0.608 q 0.72,0 1.28,-1.232 0.56,-1.248 0.88,-3.696 0.336,-2.464 0.336,-6.128 0,-3.328 -0.304,-5.712 -0.304,-2.4 -0.816,-3.696 -0.496,-1.296 -1.136,-1.296 h -0.848 z"
         style="font-weight:600;font-family:Imbue;-inkscape-font-specification:'Imbue Semi-Bold'"
         id="path4443" />
      <path
         d="m 302.60011,40.839255 q -1.248,0 -2.192,-0.688 -0.928,-0.704 -1.568,-1.92 -0.624,-1.216 -0.944,-2.8 -0.32,-1.584 -0.32,-3.344 0,-2.24 0.432,-3.84 0.448,-1.6 1.168,-2.608 0.72,-1.024 1.568,-1.504 0.864,-0.48 1.696,-0.48 1.008,0 1.84,0.544 0.832,0.544 1.44,1.536 0.608,0.976 0.944,2.288 0.336,1.312 0.336,2.848 0,0.288 -0.016,0.576 0,0.272 -0.032,0.56 h -6.256 v -0.32 h 2.976 q 0,-2.496 -0.112,-4.208 -0.096,-1.728 -0.368,-2.624 -0.272,-0.896 -0.752,-0.896 -0.464,0 -0.8,0.88 -0.336,0.864 -0.512,2.64 -0.16,1.776 -0.16,4.528 0,1.824 0.048,3.36 0.064,1.536 0.272,2.688 0.208,1.136 0.64,1.76 0.448,0.624 1.2,0.624 1.376,0 2.192,-0.656 0.816,-0.672 1.104,-1.456 l 0.256,0.192 q -0.368,0.912 -1.36,1.616 -0.992,0.704 -2.72,0.704 z"
         style="font-weight:600;font-family:Imbue;-inkscape-font-specification:'Imbue Semi-Bold'"
         id="path4445" />
      <path
         d="m 313.73616,40.839255 q -1.248,0 -2.192,-0.688 -0.928,-0.704 -1.568,-1.92 -0.624,-1.216 -0.944,-2.8 -0.32,-1.584 -0.32,-3.344 0,-2.24 0.432,-3.84 0.448,-1.6 1.168,-2.608 0.72,-1.024 1.568,-1.504 0.864,-0.48 1.696,-0.48 1.008,0 1.84,0.544 0.832,0.544 1.44,1.536 0.608,0.976 0.944,2.288 0.336,1.312 0.336,2.848 0,0.288 -0.016,0.576 0,0.272 -0.032,0.56 h -6.256 v -0.32 h 2.976 q 0,-2.496 -0.112,-4.208 -0.096,-1.728 -0.368,-2.624 -0.272,-0.896 -0.752,-0.896 -0.464,0 -0.8,0.88 -0.336,0.864 -0.512,2.64 -0.16,1.776 -0.16,4.528 0,1.824 0.048,3.36 0.064,1.536 0.272,2.688 0.208,1.136 0.64,1.76 0.448,0.624 1.2,0.624 1.376,0 2.192,-0.656 0.816,-0.672 1.104,-1.456 l 0.256,0.192 q -0.368,0.912 -1.36,1.616 -0.992,0.704 -2.72,0.704 z"
         style="font-weight:600;font-family:Imbue;-inkscape-font-specification:'Imbue Semi-Bold'"
         id="path4447" />
      <path
         d="m 319.06418,48.503255 v -0.32 h 1.392 v -24.112 h -1.392 v -0.32 h 4.784 v 2.224 q 0.128,-0.432 0.368,-0.96 0.256,-0.544 0.72,-0.944 0.48,-0.4 1.264,-0.4 1.024,0 1.904,0.864 0.896,0.848 1.44,2.736 0.56,1.872 0.56,4.944 0,3.248 -0.576,5.136 -0.576,1.872 -1.52,2.672 -0.944,0.8 -2.048,0.8 -0.704,0 -1.136,-0.368 -0.416,-0.368 -0.64,-0.864 -0.224,-0.512 -0.304,-0.912 v 9.504 h 1.456 v 0.32 z m 6.384,-8.16 q 0.336,0 0.576,-0.624 0.24,-0.624 0.4,-1.728 0.16,-1.104 0.224,-2.56 0.08,-1.472 0.08,-3.152 0,-1.536 -0.08,-2.96 -0.064,-1.44 -0.224,-2.56 -0.144,-1.136 -0.384,-1.792 -0.24,-0.672 -0.56,-0.672 -0.4,0 -0.736,0.48 -0.32,0.48 -0.544,1.232 -0.224,0.736 -0.32,1.488 v 9.216 q 0.032,0.896 0.24,1.728 0.224,0.832 0.576,1.376 0.352,0.528 0.752,0.528 z"
         style="font-weight:600;font-family:Imbue;-inkscape-font-specification:'Imbue Semi-Bold'"
         id="path4449" />
      <path
         d="m 341.83221,40.551255 -3.6,-16.48 h -1.088 v -0.32 h 5.68 v 0.32 h -1.088 l 1.872,10.064 2.08,-10.064 h -1.088 v -0.32 h 2.512 v 0.32 h -1.056 l -3.536,16.48 z m -6.128,0 -3.568,-16.48 h -1.12 v -0.32 h 5.472 v 0.32 h -1.072 l 2.096,10.064 2.08,-10.064 h -1.104 v -0.32 h 2.512 v 0.32 h -1.04 l -3.568,16.48 z"
         style="font-weight:600;font-family:Imbue;-inkscape-font-specification:'Imbue Semi-Bold'"
         id="path4451" />
      <path
         d="m 353.03222,40.855255 q -0.864,0 -1.744,-0.544 -0.864,-0.56 -1.6,-1.664 -0.736,-1.104 -1.2,-2.752 -0.448,-1.648 -0.448,-3.824 0,-2.368 0.464,-3.984 0.48,-1.632 1.216,-2.592 0.752,-0.976 1.632,-1.408 0.88,-0.432 1.68,-0.432 0.816,0 1.68,0.432 0.88,0.432 1.632,1.408 0.768,0.96 1.232,2.592 0.464,1.616 0.464,3.984 0,2.176 -0.448,3.824 -0.448,1.648 -1.2,2.752 -0.736,1.104 -1.616,1.664 -0.88,0.544 -1.744,0.544 z m 0,-0.288 q 0.8,0 1.168,-2.224 0.384,-2.224 0.384,-6.272 0,-3.968 -0.384,-6.048 -0.368,-2.08 -1.168,-2.08 -0.8,0 -1.168,2.08 -0.352,2.08 -0.352,6.048 0,4.048 0.352,6.272 0.368,2.224 1.168,2.224 z"
         style="font-weight:600;font-family:Imbue;-inkscape-font-specification:'Imbue Semi-Bold'"
         id="path4453" />
      <path
         d="m 359.11223,40.503255 v -0.32 h 1.392 v -16.112 h -1.392 v -0.32 h 4.752 v 1.984 q 0.048,-0.24 0.304,-0.736 0.272,-0.512 0.736,-0.928 0.48,-0.416 1.136,-0.416 0.816,0 1.408,0.592 0.592,0.576 0.928,1.552 0.336,0.96 0.336,2.144 0,0.928 -0.352,1.44 -0.352,0.512 -0.976,0.512 -0.608,0 -0.944,-0.496 -0.336,-0.512 -0.336,-1.264 0,-0.496 0.192,-0.928 0.192,-0.448 0.384,-0.848 0.192,-0.416 0.192,-0.832 0,-0.736 -0.272,-1.12 -0.256,-0.384 -0.752,-0.384 -0.576,0 -1.024,0.576 -0.448,0.576 -0.704,1.44 -0.256,0.864 -0.256,1.744 v 12.4 h 1.456 v 0.32 z"
         style="font-weight:600;font-family:Imbue;-inkscape-font-specification:'Imbue Semi-Bold'"
         id="path4455" />
      <path
         d="m 369.60825,40.503255 v -0.32 h 1.328 v -23.36 h -1.328 v -0.32 h 4.672 v 23.68 h 1.312 v 0.32 z"
         style="font-weight:600;font-family:Imbue;-inkscape-font-specification:'Imbue Semi-Bold'"
         id="path4457" />
      <path
         d="m 381.27225,40.823255 q -1.12,0 -2.064,-0.8 -0.944,-0.8 -1.536,-2.672 -0.576,-1.888 -0.576,-5.136 0,-3.072 0.56,-4.944 0.576,-1.888 1.488,-2.736 0.912,-0.864 1.92,-0.864 0.816,0 1.28,0.48 0.48,0.464 0.704,1.024 0.224,0.544 0.288,0.8 v -9.136 h -1.472 v -0.336 h 4.896 v 23.68 h 1.6 v 0.32 h -4.96 v -1.968 q -0.048,0.352 -0.272,0.896 -0.224,0.544 -0.672,0.976 -0.432,0.416 -1.184,0.416 z m 0.496,-0.48 q 0.432,0 0.768,-0.48 0.336,-0.496 0.544,-1.28 0.208,-0.784 0.256,-1.68 v -9.328 q -0.064,-0.768 -0.304,-1.52 -0.224,-0.752 -0.56,-1.248 -0.336,-0.512 -0.72,-0.512 -0.4,0 -0.64,0.72 -0.224,0.72 -0.336,1.904 -0.112,1.184 -0.16,2.592 -0.032,1.392 -0.032,2.768 0,1.504 0.032,2.944 0.048,1.44 0.16,2.592 0.112,1.152 0.352,1.84 0.24,0.688 0.64,0.688 z"
         style="font-weight:600;font-family:Imbue;-inkscape-font-specification:'Imbue Semi-Bold'"
         id="path4459" />
      <path
         d="m 401.46424,40.679255 q -0.688,0 -1.344,-0.256 -0.64,-0.256 -1.264,-0.576 -0.624,-0.336 -1.2,-0.576 -0.56,-0.256 -1.072,-0.256 -0.704,0 -1.12,0.512 -0.416,0.496 -0.528,0.976 h -0.176 q 0,-2.528 0.448,-4.48 0.448,-1.952 1.152,-3.488 0.72,-1.536 1.52,-2.8 0.816,-1.28 1.52,-2.416 0.72,-1.152 1.168,-2.32 0.464,-1.184 0.464,-2.528 0,-1.456 -0.208,-2.432 -0.208,-0.992 -0.672,-1.488 -0.448,-0.512 -1.184,-0.512 -0.592,0 -1.168,0.224 -0.56,0.224 -0.928,0.576 -0.352,0.352 -0.352,0.72 0,0.32 0.224,0.752 0.24,0.432 0.464,0.928 0.24,0.48 0.24,1.008 0,0.832 -0.368,1.264 -0.368,0.416 -0.96,0.416 -0.608,0 -0.976,-0.448 -0.368,-0.464 -0.368,-1.488 0,-1.168 0.528,-2.112 0.528,-0.96 1.536,-1.536 1.008,-0.592 2.4,-0.592 0.816,0 1.696,0.224 0.88,0.224 1.632,0.8 0.768,0.576 1.232,1.6 0.48,1.024 0.48,2.624 0,1.648 -0.48,2.864 -0.48,1.216 -1.28,2.16 -0.784,0.944 -1.744,1.776 -0.96,0.816 -1.936,1.68 -0.96,0.864 -1.792,1.936 -0.832,1.056 -1.376,2.464 -0.544,1.392 -0.64,3.296 0.096,-0.784 0.672,-1.344 0.576,-0.576 1.344,-0.88 0.768,-0.32 1.456,-0.32 0.864,0 1.568,0.24 0.72,0.224 1.312,0.464 0.608,0.24 1.088,0.24 0.704,0 1.136,-0.384 0.448,-0.384 0.448,-1.152 h 0.208 v 0.64 q 0,0.976 -0.256,1.904 -0.256,0.912 -0.88,1.504 -0.608,0.592 -1.664,0.592 z"
         style="font-weight:600;font-family:Imbue;-inkscape-font-specification:'Imbue Semi-Bold';fill:#ffffff"
         id="path4461" />
      <path
         d="m 412.18426,40.871255 q -1.28,0 -2.464,-1.216 -1.168,-1.232 -1.904,-3.776 -0.736,-2.56 -0.736,-6.544 0,-3.984 0.736,-6.544 0.736,-2.56 1.904,-3.792 1.168,-1.248 2.464,-1.248 1.28,0 2.448,1.248 1.168,1.232 1.904,3.792 0.736,2.56 0.736,6.544 0,3.984 -0.736,6.544 -0.736,2.544 -1.904,3.776 -1.168,1.216 -2.448,1.216 z m 0,-0.352 q 0.4,0 0.72,-0.896 0.32,-0.912 0.56,-2.48 0.24,-1.568 0.352,-3.584 0.128,-2.016 0.128,-4.224 0,-2.208 -0.128,-4.24 -0.112,-2.032 -0.352,-3.6 -0.24,-1.584 -0.56,-2.496 -0.32,-0.928 -0.72,-0.928 -0.432,0 -0.768,0.928 -0.336,0.912 -0.56,2.496 -0.224,1.568 -0.336,3.6 -0.112,2.032 -0.112,4.24 0,2.208 0.112,4.224 0.112,2.016 0.336,3.584 0.24,1.568 0.56,2.48 0.336,0.896 0.768,0.896 z"
         style="font-weight:600;font-family:Imbue;-inkscape-font-specification:'Imbue Semi-Bold';fill:#ffffff"
         id="path4463" />
      <path
         d="m 426.64827,40.679255 q -0.688,0 -1.344,-0.256 -0.64,-0.256 -1.264,-0.576 -0.624,-0.336 -1.2,-0.576 -0.56,-0.256 -1.072,-0.256 -0.704,0 -1.12,0.512 -0.416,0.496 -0.528,0.976 h -0.176 q 0,-2.528 0.448,-4.48 0.448,-1.952 1.152,-3.488 0.72,-1.536 1.52,-2.8 0.816,-1.28 1.52,-2.416 0.72,-1.152 1.168,-2.32 0.464,-1.184 0.464,-2.528 0,-1.456 -0.208,-2.432 -0.208,-0.992 -0.672,-1.488 -0.448,-0.512 -1.184,-0.512 -0.592,0 -1.168,0.224 -0.56,0.224 -0.928,0.576 -0.352,0.352 -0.352,0.72 0,0.32 0.224,0.752 0.24,0.432 0.464,0.928 0.24,0.48 0.24,1.008 0,0.832 -0.368,1.264 -0.368,0.416 -0.96,0.416 -0.608,0 -0.976,-0.448 -0.368,-0.464 -0.368,-1.488 0,-1.168 0.528,-2.112 0.528,-0.96 1.536,-1.536 1.008,-0.592 2.4,-0.592 0.816,0 1.696,0.224 0.88,0.224 1.632,0.8 0.768,0.576 1.232,1.6 0.48,1.024 0.48,2.624 0,1.648 -0.48,2.864 -0.48,1.216 -1.28,2.16 -0.784,0.944 -1.744,1.776 -0.96,0.816 -1.936,1.68 -0.96,0.864 -1.792,1.936 -0.832,1.056 -1.376,2.464 -0.544,1.392 -0.64,3.296 0.096,-0.784 0.672,-1.344 0.576,-0.576 1.344,-0.88 0.768,-0.32 1.456,-0.32 0.864,0 1.568,0.24 0.72,0.224 1.312,0.464 0.608,0.24 1.088,0.24 0.704,0 1.136,-0.384 0.448,-0.384 0.448,-1.152 h 0.208 v 0.64 q 0,0.976 -0.256,1.904 -0.256,0.912 -0.88,1.504 -0.608,0.592 -1.664,0.592 z"
         style="font-weight:600;font-family:Imbue;-inkscape-font-specification:'Imbue Semi-Bold';fill:#ffffff"
         id="path4465" />
      <path
         d="m 435.88029,40.887255 q -1.28,0 -2.192,-0.576 -0.896,-0.592 -1.36,-1.568 -0.464,-0.976 -0.464,-2.128 0,-1.072 0.432,-1.552 0.432,-0.496 1.024,-0.496 0.592,0 0.912,0.464 0.336,0.448 0.336,1.344 0,0.56 -0.24,0.992 -0.24,0.416 -0.48,0.816 -0.224,0.4 -0.224,0.88 0,0.368 0.224,0.72 0.224,0.352 0.672,0.592 0.464,0.24 1.152,0.24 0.848,0 1.296,-0.912 0.464,-0.912 0.624,-2.48 0.176,-1.584 0.176,-3.568 0,-2.064 -0.144,-3.392 -0.144,-1.344 -0.416,-2.08 -0.256,-0.752 -0.624,-1.056 -0.368,-0.304 -0.8,-0.304 -0.704,0 -1.232,0.368 -0.528,0.352 -0.928,1.008 -0.384,0.64 -0.688,1.504 l -0.304,-0.048 1.072,-11.552 h 0.272 q 0.112,0.32 0.816,0.624 0.704,0.288 1.6,0.48 0.896,0.192 1.584,0.192 1.2,0 2.064,-0.4 0.864,-0.4 0.864,-0.896 h 0.144 q 0,0.96 -0.304,1.872 -0.304,0.912 -0.976,1.488 -0.672,0.576 -1.808,0.576 -0.848,0 -1.568,-0.368 -0.704,-0.368 -1.232,-0.912 -0.528,-0.544 -0.832,-1.088 -0.304,-0.544 -0.352,-0.912 l -0.944,10.24 q 0.208,-0.704 0.64,-1.296 0.432,-0.608 1.12,-0.96 0.688,-0.368 1.632,-0.368 0.864,0 1.712,0.368 0.848,0.352 1.552,1.184 0.72,0.816 1.136,2.208 0.416,1.376 0.416,3.424 0,2.256 -0.496,3.696 -0.48,1.424 -1.296,2.224 -0.8,0.784 -1.744,1.088 -0.928,0.32 -1.824,0.32 z"
         style="font-weight:600;font-family:Imbue;-inkscape-font-specification:'Imbue Semi-Bold';fill:#ffffff"
         id="path4467" />
      <path
         d="m 448.8883,40.503255 v -0.32 h 1.488 v -21.76 h -1.488 v -0.32 h 9.536 v 5.104 h -0.32 q 0,-1.296 -0.384,-2.384 -0.368,-1.104 -1.088,-1.744 -0.704,-0.656 -1.744,-0.656 h -1.136 v 10.704 h 3.12 v -1.92 h 0.32 v 4.128 h -0.32 v -1.888 h -3.12 v 10.736 h 1.072 q 1.056,0 1.776,-0.672 0.736,-0.672 1.12,-1.76 0.384,-1.104 0.384,-2.4 h 0.32 v 5.152 z"
         style="font-weight:600;font-family:Imbue;-inkscape-font-specification:'Imbue Semi-Bold';fill:#ffffff"
         id="path4469" />
      <path
         d="m 464.39231,40.823255 q -1.12,0 -2.064,-0.8 -0.944,-0.8 -1.536,-2.672 -0.576,-1.888 -0.576,-5.136 0,-3.072 0.56,-4.944 0.576,-1.888 1.488,-2.736 0.912,-0.864 1.92,-0.864 0.816,0 1.28,0.48 0.48,0.464 0.704,1.024 0.224,0.544 0.288,0.8 v -9.136 h -1.472 v -0.336 h 4.896 v 23.68 h 1.6 v 0.32 h -4.96 v -1.968 q -0.048,0.352 -0.272,0.896 -0.224,0.544 -0.672,0.976 -0.432,0.416 -1.184,0.416 z m 0.496,-0.48 q 0.432,0 0.768,-0.48 0.336,-0.496 0.544,-1.28 0.208,-0.784 0.256,-1.68 v -9.328 q -0.064,-0.768 -0.304,-1.52 -0.224,-0.752 -0.56,-1.248 -0.336,-0.512 -0.72,-0.512 -0.4,0 -0.64,0.72 -0.224,0.72 -0.336,1.904 -0.112,1.184 -0.16,2.592 -0.032,1.392 -0.032,2.768 0,1.504 0.032,2.944 0.048,1.44 0.16,2.592 0.112,1.152 0.352,1.84 0.24,0.688 0.64,0.688 z"
         style="font-weight:600;font-family:Imbue;-inkscape-font-specification:'Imbue Semi-Bold';fill:#ffffff"
         id="path4471" />
      <path
         d="m 472.00828,40.503255 v -0.32 h 1.424 v -16.112 h -1.424 v -0.32 h 4.784 v 16.432 h 1.456 v 0.32 z m 3.088,-19.248 q -0.896,0 -1.536,-0.624 -0.64,-0.64 -0.64,-1.552 0,-0.88 0.64,-1.504 0.64,-0.64 1.552,-0.64 0.864,0 1.488,0.64 0.624,0.624 0.624,1.504 0,0.912 -0.624,1.552 -0.624,0.624 -1.504,0.624 z"
         style="font-weight:600;font-family:Imbue;-inkscape-font-specification:'Imbue Semi-Bold';fill:#ffffff"
         id="path4473" />
      <path
         d="m 483.15228,40.791255 q -0.736,0 -1.456,-0.288 -0.704,-0.288 -1.168,-1.088 -0.448,-0.8 -0.448,-2.304 v -13.04 h -1.744 v -0.32 h 1.744 q 0.608,0 1.184,-0.656 0.592,-0.656 1.072,-1.728 0.48,-1.088 0.72,-2.336 h 0.384 v 4.72 h 2.096 v 0.32 h -2.096 v 15.184 q 0,0.592 0.288,0.848 0.304,0.24 0.56,0.24 0.32,0 0.608,-0.176 0.304,-0.192 0.432,-0.32 l 0.176,0.224 q -0.368,0.336 -0.96,0.528 -0.576,0.192 -1.392,0.192 z"
         style="font-weight:600;font-family:Imbue;-inkscape-font-specification:'Imbue Semi-Bold';fill:#ffffff"
         id="path4475" />
      <path
         d="m 486.36827,40.503255 v -0.32 h 1.424 v -16.112 h -1.424 v -0.32 h 4.784 v 16.432 h 1.456 v 0.32 z m 3.088,-19.248 q -0.896,0 -1.536,-0.624 -0.64,-0.64 -0.64,-1.552 0,-0.88 0.64,-1.504 0.64,-0.64 1.552,-0.64 0.864,0 1.488,0.64 0.624,0.624 0.624,1.504 0,0.912 -0.624,1.552 -0.624,0.624 -1.504,0.624 z"
         style="font-weight:600;font-family:Imbue;-inkscape-font-specification:'Imbue Semi-Bold';fill:#ffffff"
         id="path4477" />
      <path
         d="m 498.64025,40.855255 q -0.864,0 -1.744,-0.544 -0.864,-0.56 -1.6,-1.664 -0.736,-1.104 -1.2,-2.752 -0.448,-1.648 -0.448,-3.824 0,-2.368 0.464,-3.984 0.48,-1.632 1.216,-2.592 0.752,-0.976 1.632,-1.408 0.88,-0.432 1.68,-0.432 0.816,0 1.68,0.432 0.88,0.432 1.632,1.408 0.768,0.96 1.232,2.592 0.464,1.616 0.464,3.984 0,2.176 -0.448,3.824 -0.448,1.648 -1.2,2.752 -0.736,1.104 -1.616,1.664 -0.88,0.544 -1.744,0.544 z m 0,-0.288 q 0.8,0 1.168,-2.224 0.384,-2.224 0.384,-6.272 0,-3.968 -0.384,-6.048 -0.368,-2.08 -1.168,-2.08 -0.8,0 -1.168,2.08 -0.352,2.08 -0.352,6.048 0,4.048 0.352,6.272 0.368,2.224 1.168,2.224 z"
         style="font-weight:600;font-family:Imbue;-inkscape-font-specification:'Imbue Semi-Bold';fill:#ffffff"
         id="path4479" />
      <path
         d="m 504.89626,40.503255 v -0.32 h 1.408 v -16.112 h -1.408 v -0.32 h 4.768 v 2.304 q 0.16,-0.528 0.448,-1.088 0.304,-0.56 0.832,-0.928 0.528,-0.384 1.408,-0.384 0.912,0 1.68,0.384 0.768,0.384 1.232,1.472 0.48,1.088 0.48,3.216 v 11.456 h 1.344 v 0.32 h -5.792 v -0.32 h 1.088 v -11.232 q 0,-2.4 -0.24,-3.552 -0.24,-1.152 -0.88,-1.152 -0.288,0 -0.576,0.32 -0.288,0.32 -0.512,0.816 -0.208,0.496 -0.352,1.056 -0.144,0.544 -0.16,0.992 v 12.752 h 1.104 v 0.32 z"
         style="font-weight:600;font-family:Imbue;-inkscape-font-specification:'Imbue Semi-Bold';fill:#ffffff"
         id="path4481" />
    </g>
  </g>
</svg>
