<?xml version="1.0" encoding="UTF-8" standalone="no"?>
<!-- Created with Inkscape (http://www.inkscape.org/) -->

<svg
   width="1920"
   height="1080"
   viewBox="0 0 508 285.75001"
   version="1.1"
   id="svg10566"
   xml:space="preserve"
   xmlns:xlink="http://www.w3.org/1999/xlink"
   xmlns="http://www.w3.org/2000/svg"
   xmlns:svg="http://www.w3.org/2000/svg"><defs
     id="defs10563"><linearGradient
       id="linearGradient22490"><stop
         style="stop-color:#4c3a61;stop-opacity:1;"
         offset="0"
         id="stop22486" /><stop
         style="stop-color:#32203b;stop-opacity:1;"
         offset="1"
         id="stop22488" /></linearGradient><linearGradient
       xlink:href="#linearGradient22490"
       id="linearGradient17684"
       gradientUnits="userSpaceOnUse"
       gradientTransform="matrix(2.3008542,0,0,4.7911384,-154.11012,-493.65364)"
       x1="79.176048"
       y1="233.05685"
       x2="167.7146"
       y2="232.27512" /><linearGradient
       xlink:href="#linearGradient22490"
       id="linearGradient17707"
       gradientUnits="userSpaceOnUse"
       gradientTransform="matrix(2.3008542,0,0,4.7911384,-81.214875,-494.31577)"
       x1="79.176048"
       y1="233.05685"
       x2="167.7146"
       y2="232.27512" /><linearGradient
       xlink:href="#linearGradient22490"
       id="linearGradient17730"
       gradientUnits="userSpaceOnUse"
       gradientTransform="matrix(2.3008542,0,0,4.7911384,-57.823125,-469.15589)"
       x1="79.176048"
       y1="233.05685"
       x2="167.7146"
       y2="232.27512" /><linearGradient
       xlink:href="#linearGradient22490"
       id="linearGradient17753"
       gradientUnits="userSpaceOnUse"
       gradientTransform="matrix(2.3008542,0,0,4.7911384,-32.255395,-459.22436)"
       x1="79.176048"
       y1="233.05685"
       x2="167.7146"
       y2="232.27512" /><linearGradient
       xlink:href="#linearGradient22490"
       id="linearGradient17776"
       gradientUnits="userSpaceOnUse"
       gradientTransform="matrix(2.3008542,0,0,4.7911384,6.9121955,-489.68105)"
       x1="79.176048"
       y1="233.05685"
       x2="167.7146"
       y2="232.27512" /><linearGradient
       xlink:href="#linearGradient22490"
       id="linearGradient17799"
       gradientUnits="userSpaceOnUse"
       gradientTransform="matrix(2.3008542,0,0,4.7911384,-236.79725,-487.03264)"
       x1="79.176048"
       y1="233.05685"
       x2="167.7146"
       y2="232.27512" /><linearGradient
       xlink:href="#linearGradient22490"
       id="linearGradient17835"
       gradientUnits="userSpaceOnUse"
       gradientTransform="matrix(2.3008542,0,0,4.7911384,-119.29448,-481.7358)"
       x1="79.176048"
       y1="233.05685"
       x2="167.7146"
       y2="232.27512" /><linearGradient
       xlink:href="#linearGradient22490"
       id="linearGradient21698"
       gradientUnits="userSpaceOnUse"
       gradientTransform="matrix(2.3008542,0,0,4.7911384,47.150045,-481.0904)"
       x1="79.176048"
       y1="233.05685"
       x2="167.7146"
       y2="232.27512" /><linearGradient
       xlink:href="#linearGradient22490"
       id="linearGradient21700"
       gradientUnits="userSpaceOnUse"
       gradientTransform="matrix(2.3008542,0,0,4.7911384,163.60033,-497.19744)"
       x1="79.176048"
       y1="233.05685"
       x2="167.7146"
       y2="232.27512" /><linearGradient
       xlink:href="#linearGradient22490"
       id="linearGradient21702"
       gradientUnits="userSpaceOnUse"
       gradientTransform="matrix(2.3008542,0,0,4.7911384,125.52072,-484.61748)"
       x1="79.176048"
       y1="233.05685"
       x2="167.7146"
       y2="232.27512" /><linearGradient
       xlink:href="#linearGradient22490"
       id="linearGradient21704"
       gradientUnits="userSpaceOnUse"
       gradientTransform="matrix(2.3008542,0,0,4.7911384,251.7274,-492.56273)"
       x1="79.176048"
       y1="233.05685"
       x2="167.7146"
       y2="232.27512" /><linearGradient
       xlink:href="#linearGradient22490"
       id="linearGradient21706"
       gradientUnits="userSpaceOnUse"
       gradientTransform="matrix(2.3008542,0,0,4.7911384,212.55981,-462.10608)"
       x1="79.176048"
       y1="233.05685"
       x2="167.7146"
       y2="232.27512" /><linearGradient
       xlink:href="#linearGradient22490"
       id="linearGradient21708"
       gradientUnits="userSpaceOnUse"
       gradientTransform="matrix(2.3008542,0,0,4.7911384,186.99208,-472.03758)"
       x1="79.176048"
       y1="233.05685"
       x2="167.7146"
       y2="232.27512" /><linearGradient
       xlink:href="#linearGradient22490"
       id="linearGradient23734"
       gradientUnits="userSpaceOnUse"
       gradientTransform="matrix(2.3008542,0,0,4.7911384,-197.66515,-478.20869)"
       x1="79.176048"
       y1="233.05685"
       x2="167.7146"
       y2="232.27512" /></defs><g
     id="layer1"><rect
       style="fill:#0088aa;fill-opacity:1;stroke:none;stroke-width:1.974;stroke-opacity:1"
       id="rect11808"
       width="508"
       height="285.75"
       x="0"
       y="0" /><image
       width="151.25612"
       height="66.723259"
       preserveAspectRatio="none"
       href="clouds.png"
       id="image26363"
       x="-20.5583"
       y="5.4401293"
       style="opacity:0.344444" /><image
       width="217.08037"
       height="88.66468"
       preserveAspectRatio="none"
       href="clouds.png"
       id="image26363-4"
       x="137.73758"
       y="2.8244851"
       style="opacity:0.290476" /><image
       width="151.25612"
       height="66.723259"
       preserveAspectRatio="none"
       href="clouds.png"
       id="image26363-6"
       x="-517.59094"
       y="9.4763765"
       transform="scale(-1,1)"
       style="opacity:0.361905" /><g
       id="g27552"><path
         style="fill:url(#linearGradient23734);fill-opacity:1;stroke:none;stroke-width:6.55407"
         d="m -314.9572,1189.0002 c 0,0 359.940375,-1047.71848 377.780095,-1104.452045 3.24727,-10.326908 2.91815,-5.685765 5.28009,3.246839 C 80.604835,135.07555 458.49039,1178.3809 458.49039,1178.3809"
         id="path11111-0-8" /><path
         style="fill:url(#linearGradient17707);fill-opacity:1;stroke:none;stroke-width:6.55407"
         d="m -198.50692,1172.8931 c 0,0 357.22041,-1037.12482 375.06013,-1093.85838 3.24727,-10.32691 4.55013,-8.334175 6.91207,0.598425 C 195.96712,126.9137 574.94071,1162.2738 574.94071,1162.2738"
         id="path11111-0-8-62" /><path
         style="fill:url(#linearGradient17835);fill-opacity:1;stroke:none;stroke-width:6.55407"
         d="m -236.58653,1185.473 c 0,0 357.7644,-1039.44211 375.60412,-1096.175677 3.24727,-10.326911 2.64615,-7.341023 5.00809,1.59158 C 156.52753,138.16946 536.86109,1174.8538 536.86109,1174.8538"
         id="path11111-0-8-62-5" /><path
         style="fill:url(#linearGradient17684);fill-opacity:1;stroke:none;stroke-width:6.55407"
         d="m -271.40217,1173.5552 c 0,0 357.492405,-1041.42848 375.33213,-1098.16204 3.24728,-10.32691 3.46214,-8.665226 5.82408,0.267374 C 122.25589,122.94109 502.04542,1162.936 502.04542,1162.936"
         id="path11111-0-8-6" /><path
         style="fill:url(#linearGradient17776);fill-opacity:1;stroke:none;stroke-width:6.55407"
         d="m -110.37985,1177.5278 c 0,0 356.40442,-1030.83484 374.24414,-1087.5684 3.24727,-10.326906 3.73414,-8.665222 6.09608,0.267375 C 282.46222,137.50734 663.06769,1166.9086 663.06769,1166.9086"
         id="path11111-0-8-8" /><path
         style="fill:url(#linearGradient17753);fill-opacity:1;stroke:none;stroke-width:6.55407"
         d="m -149.54744,1207.9845 c 0,0 358.5804,-1045.07004 376.42012,-1101.80361 3.24727,-10.326905 3.46214,-7.009965 5.82408,1.92263 12.50184,47.28057 391.20342,1089.26178 391.20342,1089.26178"
         id="path11111-0-8-0" /><path
         style="fill:url(#linearGradient17730);fill-opacity:1;stroke:none;stroke-width:6.55407"
         d="m -175.11517,1198.053 c 0,0 353.95644,-1036.79379 371.79616,-1093.52736 3.24728,-10.326905 4.82214,-9.658375 7.18408,-0.72578 12.50184,47.28057 394.46731,1083.63394 394.46731,1083.63394"
         id="path11111-0-8-7" /><path
         style="fill:url(#linearGradient21698);fill-opacity:1;stroke:none;stroke-width:6.55407"
         d="m -70.142005,1186.1185 c 0,0 359.940385,-1047.71849 377.780105,-1104.452056 3.24727,-10.32691 2.91815,-5.685767 5.28009,3.246839 C 325.42004,132.19384 703.30558,1175.4992 703.30558,1175.4992"
         id="path11111-0-8-1" /><path
         style="fill:url(#linearGradient21700);fill-opacity:1;stroke:none;stroke-width:6.55407"
         d="m 46.308275,1170.0114 c 0,0 357.220415,-1037.12483 375.060135,-1093.85839 3.24727,-10.32691 4.55013,-8.334177 6.91207,0.598422 C 440.78233,124.03199 819.75587,1159.3921 819.75587,1159.3921"
         id="path11111-0-8-62-8" /><path
         style="fill:url(#linearGradient21702);fill-opacity:1;stroke:none;stroke-width:6.55407"
         d="m 8.2286655,1182.5913 c 0,0 357.7644045,-1039.44212 375.6041245,-1096.175687 3.24728,-10.32691 2.64616,-7.341021 5.0081,1.591579 C 401.34273,135.28775 781.67625,1171.9721 781.67625,1171.9721"
         id="path11111-0-8-62-5-7" /><path
         style="fill:url(#linearGradient21704);fill-opacity:1;stroke:none;stroke-width:6.55407"
         d="m 134.43535,1174.6461 c 0,0 356.40441,-1030.83485 374.24414,-1087.56841 3.24727,-10.326904 3.73414,-8.665226 6.09608,0.267375 C 527.27742,134.62563 907.88286,1164.0269 907.88286,1164.0269"
         id="path11111-0-8-8-6" /><path
         style="fill:url(#linearGradient21706);fill-opacity:1;stroke:none;stroke-width:6.55407"
         d="m 95.267755,1205.1028 c 0,0 358.580405,-1045.07005 376.420125,-1101.80362 3.24727,-10.326905 3.46214,-7.009965 5.82408,1.92263 12.50184,47.28057 391.20338,1089.26169 391.20338,1089.26169"
         id="path11111-0-8-0-5" /><path
         style="fill:url(#linearGradient21708);fill-opacity:1;stroke:none;stroke-width:6.55407"
         d="m 69.700025,1195.1713 c 0,0 353.956445,-1036.7938 371.796165,-1093.52737 3.24728,-10.326904 4.82214,-9.658375 7.18408,-0.72578 12.50184,47.28056 394.46727,1083.63385 394.46727,1083.63385"
         id="path11111-0-8-7-9" /><path
         style="fill:url(#linearGradient17799);fill-opacity:1;stroke:none;stroke-width:6.55407"
         d="m -354.0893,1180.1762 c 0,0 358.3083855,-1050.69789 376.148115,-1107.43145 3.24727,-10.326909 3.19014,-8.665225 5.55209,0.267374 C 40.112745,120.29269 419.3583,1169.557 419.3583,1169.557"
         id="path11111-0-8-9" /></g></g></svg>
